<svg width="180" height="60" viewBox="0 0 180 60" fill="none" xmlns="http://www.w3.org/2000/svg">
  <!-- Modern ejderha silueti: daha dinamik ve estetik çizgiler -->
  <g stroke="#111" stroke-width="2" fill="none">
    <!-- Ejderha gövdesi ve kuyruğu -->
    <path d="M30,50 Q50,10 90,30 Q120,50 150,20 Q160,10 140,10 Q120,10 110,30 Q100,50 80,40 Q60,30 40,50 Z" />
    <!-- Ejderha kafası ve boynuzları -->
    <ellipse cx="35" cy="35" rx="8" ry="12" />
    <path d="M30,25 Q28,20 35,18 Q42,20 40,25" />
    <path d="M32,18 Q30,10 36,12" /> <!-- Sol boynuz -->
    <path d="M38,18 Q40,10 34,12" /> <!-- Sağ boynuz -->
    <!-- Göz ve ağız -->
    <circle cx="37" cy="32" r="2" fill="#111" />
    <path d="M36,38 Q37,39 38,38" />
  </g>
  <!-- Altında TESTRUNNERS metni -->
  <text x="90" y="58" text-anchor="middle" font-family="Arial, Helvetica, sans-serif" font-size="18" fill="#111" font-weight="bold">TESTRUNNERS</text>
</svg>
